<mxfile host="app.diagrams.net" modified="2024-07-23T02:36:12.480Z" agent="Mozilla/5.0 (Windows NT 10.0; Win64; x64) AppleWebKit/537.36 (KHTML, like Gecko) Chrome/126.0.0.0 Safari/537.36 Edg/126.0.0.0" etag="7hQcQab0k_diRt0o2Y3I" version="24.7.3" type="device">
  <diagram name="Page-1" id="LGPS1KCeHK5PKEwUvWXS">
    <mxGraphModel dx="1756" dy="605" grid="1" gridSize="10" guides="1" tooltips="1" connect="1" arrows="1" fold="1" page="1" pageScale="1" pageWidth="850" pageHeight="1100" math="0" shadow="0">
      <root>
        <mxCell id="0" />
        <mxCell id="1" parent="0" />
        <mxCell id="616qdfHTs7QE9x_-0bw8-1" value="Mahasiswa" style="whiteSpace=wrap;html=1;align=center;" vertex="1" parent="1">
          <mxGeometry x="-670" y="165" width="90" height="50" as="geometry" />
        </mxCell>
        <mxCell id="616qdfHTs7QE9x_-0bw8-2" value="mendaftar" style="shape=rhombus;perimeter=rhombusPerimeter;whiteSpace=wrap;html=1;align=center;" vertex="1" parent="1">
          <mxGeometry x="-400" y="150" width="80" height="100" as="geometry" />
        </mxCell>
        <mxCell id="616qdfHTs7QE9x_-0bw8-3" value="nama_tengah" style="ellipse;whiteSpace=wrap;html=1;align=center;" vertex="1" parent="1">
          <mxGeometry x="-680" y="30" width="100" height="30" as="geometry" />
        </mxCell>
        <mxCell id="616qdfHTs7QE9x_-0bw8-4" value="nama_belakang" style="ellipse;whiteSpace=wrap;html=1;align=center;" vertex="1" parent="1">
          <mxGeometry x="-560" y="60" width="100" height="40" as="geometry" />
        </mxCell>
        <mxCell id="616qdfHTs7QE9x_-0bw8-5" value="nim" style="ellipse;whiteSpace=wrap;html=1;align=center;" vertex="1" parent="1">
          <mxGeometry x="-775" y="120" width="70" height="40" as="geometry" />
        </mxCell>
        <mxCell id="616qdfHTs7QE9x_-0bw8-6" value="nama" style="ellipse;whiteSpace=wrap;html=1;align=center;" vertex="1" parent="1">
          <mxGeometry x="-660" y="100" width="60" height="30" as="geometry" />
        </mxCell>
        <mxCell id="616qdfHTs7QE9x_-0bw8-7" value="nama_depan" style="ellipse;whiteSpace=wrap;html=1;align=center;" vertex="1" parent="1">
          <mxGeometry x="-790" y="60" width="100" height="40" as="geometry" />
        </mxCell>
        <mxCell id="616qdfHTs7QE9x_-0bw8-13" value="jurusan" style="ellipse;whiteSpace=wrap;html=1;align=center;" vertex="1" parent="1">
          <mxGeometry x="-810" y="170" width="70" height="40" as="geometry" />
        </mxCell>
        <mxCell id="616qdfHTs7QE9x_-0bw8-14" value="alamat" style="ellipse;whiteSpace=wrap;html=1;align=center;" vertex="1" parent="1">
          <mxGeometry x="-760" y="220" width="70" height="40" as="geometry" />
        </mxCell>
        <mxCell id="616qdfHTs7QE9x_-0bw8-16" value="" style="endArrow=none;html=1;rounded=0;exitX=1;exitY=1;exitDx=0;exitDy=0;entryX=0;entryY=0.5;entryDx=0;entryDy=0;" edge="1" parent="1" source="616qdfHTs7QE9x_-0bw8-5" target="616qdfHTs7QE9x_-0bw8-1">
          <mxGeometry relative="1" as="geometry">
            <mxPoint x="-580" y="130" as="sourcePoint" />
            <mxPoint x="-420" y="130" as="targetPoint" />
          </mxGeometry>
        </mxCell>
        <mxCell id="616qdfHTs7QE9x_-0bw8-17" value="" style="endArrow=none;html=1;rounded=0;exitX=1;exitY=0.5;exitDx=0;exitDy=0;entryX=0;entryY=0.5;entryDx=0;entryDy=0;" edge="1" parent="1" source="616qdfHTs7QE9x_-0bw8-13" target="616qdfHTs7QE9x_-0bw8-1">
          <mxGeometry relative="1" as="geometry">
            <mxPoint x="-580" y="130" as="sourcePoint" />
            <mxPoint x="-420" y="130" as="targetPoint" />
          </mxGeometry>
        </mxCell>
        <mxCell id="616qdfHTs7QE9x_-0bw8-18" value="" style="endArrow=none;html=1;rounded=0;exitX=1;exitY=0;exitDx=0;exitDy=0;entryX=0;entryY=0.5;entryDx=0;entryDy=0;" edge="1" parent="1" source="616qdfHTs7QE9x_-0bw8-14" target="616qdfHTs7QE9x_-0bw8-1">
          <mxGeometry relative="1" as="geometry">
            <mxPoint x="-580" y="130" as="sourcePoint" />
            <mxPoint x="-420" y="130" as="targetPoint" />
          </mxGeometry>
        </mxCell>
        <mxCell id="616qdfHTs7QE9x_-0bw8-19" value="" style="endArrow=none;html=1;rounded=0;exitX=0.5;exitY=1;exitDx=0;exitDy=0;entryX=0.5;entryY=0;entryDx=0;entryDy=0;" edge="1" parent="1" source="616qdfHTs7QE9x_-0bw8-3" target="616qdfHTs7QE9x_-0bw8-6">
          <mxGeometry relative="1" as="geometry">
            <mxPoint x="-580" y="130" as="sourcePoint" />
            <mxPoint x="-420" y="130" as="targetPoint" />
          </mxGeometry>
        </mxCell>
        <mxCell id="616qdfHTs7QE9x_-0bw8-22" value="" style="endArrow=none;html=1;rounded=0;entryX=0.5;entryY=1;entryDx=0;entryDy=0;" edge="1" parent="1" source="616qdfHTs7QE9x_-0bw8-1" target="616qdfHTs7QE9x_-0bw8-6">
          <mxGeometry relative="1" as="geometry">
            <mxPoint x="-580" y="130" as="sourcePoint" />
            <mxPoint x="-420" y="130" as="targetPoint" />
          </mxGeometry>
        </mxCell>
        <mxCell id="616qdfHTs7QE9x_-0bw8-23" value="" style="endArrow=none;html=1;rounded=0;exitX=0.95;exitY=0.8;exitDx=0;exitDy=0;exitPerimeter=0;" edge="1" parent="1" source="616qdfHTs7QE9x_-0bw8-7">
          <mxGeometry relative="1" as="geometry">
            <mxPoint x="-580" y="230" as="sourcePoint" />
            <mxPoint x="-660" y="110" as="targetPoint" />
          </mxGeometry>
        </mxCell>
        <mxCell id="616qdfHTs7QE9x_-0bw8-24" value="" style="endArrow=none;html=1;rounded=0;entryX=0.01;entryY=0.7;entryDx=0;entryDy=0;entryPerimeter=0;exitX=1;exitY=0.5;exitDx=0;exitDy=0;" edge="1" parent="1" source="616qdfHTs7QE9x_-0bw8-6" target="616qdfHTs7QE9x_-0bw8-4">
          <mxGeometry relative="1" as="geometry">
            <mxPoint x="-590" y="110" as="sourcePoint" />
            <mxPoint x="-420" y="230" as="targetPoint" />
          </mxGeometry>
        </mxCell>
        <mxCell id="616qdfHTs7QE9x_-0bw8-25" value="nim" style="ellipse;whiteSpace=wrap;html=1;align=center;" vertex="1" parent="1">
          <mxGeometry x="-340" y="50" width="70" height="40" as="geometry" />
        </mxCell>
        <mxCell id="616qdfHTs7QE9x_-0bw8-26" value="nama" style="ellipse;whiteSpace=wrap;html=1;align=center;" vertex="1" parent="1">
          <mxGeometry x="-310" y="100" width="70" height="40" as="geometry" />
        </mxCell>
        <mxCell id="616qdfHTs7QE9x_-0bw8-27" value="alamat" style="ellipse;whiteSpace=wrap;html=1;align=center;" vertex="1" parent="1">
          <mxGeometry x="-470" y="100" width="70" height="40" as="geometry" />
        </mxCell>
        <mxCell id="616qdfHTs7QE9x_-0bw8-28" value="jurusan" style="ellipse;whiteSpace=wrap;html=1;align=center;" vertex="1" parent="1">
          <mxGeometry x="-430" y="50" width="70" height="40" as="geometry" />
        </mxCell>
        <mxCell id="616qdfHTs7QE9x_-0bw8-29" value="" style="endArrow=none;html=1;rounded=0;entryX=0.5;entryY=1;entryDx=0;entryDy=0;exitX=0.5;exitY=0;exitDx=0;exitDy=0;" edge="1" parent="1" source="616qdfHTs7QE9x_-0bw8-2" target="616qdfHTs7QE9x_-0bw8-25">
          <mxGeometry relative="1" as="geometry">
            <mxPoint x="-350" y="160" as="sourcePoint" />
            <mxPoint x="-220" y="230" as="targetPoint" />
          </mxGeometry>
        </mxCell>
        <mxCell id="616qdfHTs7QE9x_-0bw8-30" value="" style="endArrow=none;html=1;rounded=0;exitX=0.614;exitY=1.025;exitDx=0;exitDy=0;exitPerimeter=0;entryX=0.5;entryY=0;entryDx=0;entryDy=0;" edge="1" parent="1" source="616qdfHTs7QE9x_-0bw8-28" target="616qdfHTs7QE9x_-0bw8-2">
          <mxGeometry relative="1" as="geometry">
            <mxPoint x="-380" y="230" as="sourcePoint" />
            <mxPoint x="-220" y="230" as="targetPoint" />
          </mxGeometry>
        </mxCell>
        <mxCell id="616qdfHTs7QE9x_-0bw8-31" value="" style="endArrow=none;html=1;rounded=0;exitX=0.5;exitY=1;exitDx=0;exitDy=0;entryX=0.5;entryY=0;entryDx=0;entryDy=0;" edge="1" parent="1" source="616qdfHTs7QE9x_-0bw8-27" target="616qdfHTs7QE9x_-0bw8-2">
          <mxGeometry relative="1" as="geometry">
            <mxPoint x="-380" y="230" as="sourcePoint" />
            <mxPoint x="-220" y="230" as="targetPoint" />
          </mxGeometry>
        </mxCell>
        <mxCell id="616qdfHTs7QE9x_-0bw8-32" value="" style="endArrow=none;html=1;rounded=0;entryX=0.286;entryY=1;entryDx=0;entryDy=0;entryPerimeter=0;exitX=0.5;exitY=0;exitDx=0;exitDy=0;" edge="1" parent="1" source="616qdfHTs7QE9x_-0bw8-2" target="616qdfHTs7QE9x_-0bw8-26">
          <mxGeometry relative="1" as="geometry">
            <mxPoint x="-380" y="230" as="sourcePoint" />
            <mxPoint x="-220" y="230" as="targetPoint" />
          </mxGeometry>
        </mxCell>
        <mxCell id="616qdfHTs7QE9x_-0bw8-35" value="" style="endArrow=none;html=1;rounded=0;exitX=1;exitY=0.5;exitDx=0;exitDy=0;entryX=0;entryY=0.43;entryDx=0;entryDy=0;entryPerimeter=0;" edge="1" parent="1" source="616qdfHTs7QE9x_-0bw8-1" target="616qdfHTs7QE9x_-0bw8-2">
          <mxGeometry relative="1" as="geometry">
            <mxPoint x="-380" y="230" as="sourcePoint" />
            <mxPoint x="-220" y="230" as="targetPoint" />
          </mxGeometry>
        </mxCell>
        <mxCell id="616qdfHTs7QE9x_-0bw8-36" value="nama" style="ellipse;whiteSpace=wrap;html=1;align=center;" vertex="1" parent="1">
          <mxGeometry x="-180" y="25" width="90" height="40" as="geometry" />
        </mxCell>
        <mxCell id="616qdfHTs7QE9x_-0bw8-37" value="jurusan" style="ellipse;whiteSpace=wrap;html=1;align=center;" vertex="1" parent="1">
          <mxGeometry x="-80" y="25" width="90" height="40" as="geometry" />
        </mxCell>
        <mxCell id="616qdfHTs7QE9x_-0bw8-38" value="nomor_anggota" style="ellipse;whiteSpace=wrap;html=1;align=center;" vertex="1" parent="1">
          <mxGeometry x="-210" y="70" width="90" height="40" as="geometry" />
        </mxCell>
        <mxCell id="616qdfHTs7QE9x_-0bw8-39" value="Attribute" style="ellipse;whiteSpace=wrap;html=1;align=center;" vertex="1" parent="1">
          <mxGeometry x="-50" y="70" width="90" height="40" as="geometry" />
        </mxCell>
        <mxCell id="616qdfHTs7QE9x_-0bw8-41" value="Anggota&lt;div&gt;Perpustakaan&lt;/div&gt;" style="whiteSpace=wrap;html=1;align=center;" vertex="1" parent="1">
          <mxGeometry x="-130" y="160" width="100" height="50" as="geometry" />
        </mxCell>
        <mxCell id="616qdfHTs7QE9x_-0bw8-42" value="" style="endArrow=none;html=1;rounded=0;entryX=0.689;entryY=1.025;entryDx=0;entryDy=0;entryPerimeter=0;" edge="1" parent="1" source="616qdfHTs7QE9x_-0bw8-41" target="616qdfHTs7QE9x_-0bw8-36">
          <mxGeometry relative="1" as="geometry">
            <mxPoint x="-380" y="230" as="sourcePoint" />
            <mxPoint x="-220" y="230" as="targetPoint" />
          </mxGeometry>
        </mxCell>
        <mxCell id="616qdfHTs7QE9x_-0bw8-43" value="" style="endArrow=none;html=1;rounded=0;entryX=0.178;entryY=1.025;entryDx=0;entryDy=0;entryPerimeter=0;exitX=0.43;exitY=0.04;exitDx=0;exitDy=0;exitPerimeter=0;" edge="1" parent="1" source="616qdfHTs7QE9x_-0bw8-41" target="616qdfHTs7QE9x_-0bw8-37">
          <mxGeometry relative="1" as="geometry">
            <mxPoint x="-380" y="230" as="sourcePoint" />
            <mxPoint x="-220" y="230" as="targetPoint" />
          </mxGeometry>
        </mxCell>
        <mxCell id="616qdfHTs7QE9x_-0bw8-45" value="" style="endArrow=none;html=1;rounded=0;entryX=0.689;entryY=1.025;entryDx=0;entryDy=0;entryPerimeter=0;" edge="1" parent="1" target="616qdfHTs7QE9x_-0bw8-38">
          <mxGeometry relative="1" as="geometry">
            <mxPoint x="-90" y="160" as="sourcePoint" />
            <mxPoint x="-150" y="120" as="targetPoint" />
          </mxGeometry>
        </mxCell>
        <mxCell id="616qdfHTs7QE9x_-0bw8-47" value="" style="endArrow=none;html=1;rounded=0;entryX=0.256;entryY=0.95;entryDx=0;entryDy=0;entryPerimeter=0;exitX=0.4;exitY=0.06;exitDx=0;exitDy=0;exitPerimeter=0;" edge="1" parent="1" source="616qdfHTs7QE9x_-0bw8-41" target="616qdfHTs7QE9x_-0bw8-39">
          <mxGeometry relative="1" as="geometry">
            <mxPoint x="-380" y="230" as="sourcePoint" />
            <mxPoint x="-220" y="230" as="targetPoint" />
          </mxGeometry>
        </mxCell>
        <mxCell id="616qdfHTs7QE9x_-0bw8-48" value="" style="endArrow=none;html=1;rounded=0;entryX=0.5;entryY=1;entryDx=0;entryDy=0;" edge="1" parent="1" target="616qdfHTs7QE9x_-0bw8-41">
          <mxGeometry relative="1" as="geometry">
            <mxPoint x="-80" y="280" as="sourcePoint" />
            <mxPoint x="-220" y="230" as="targetPoint" />
          </mxGeometry>
        </mxCell>
        <mxCell id="616qdfHTs7QE9x_-0bw8-49" value="kode_peminjaman" style="ellipse;whiteSpace=wrap;html=1;align=center;" vertex="1" parent="1">
          <mxGeometry x="-215" y="220" width="100" height="40" as="geometry" />
        </mxCell>
        <mxCell id="616qdfHTs7QE9x_-0bw8-50" value="tanggal_kembali" style="ellipse;whiteSpace=wrap;html=1;align=center;" vertex="1" parent="1">
          <mxGeometry x="-260" y="290" width="100" height="40" as="geometry" />
        </mxCell>
        <mxCell id="616qdfHTs7QE9x_-0bw8-51" value="denda" style="ellipse;whiteSpace=wrap;html=1;align=center;" vertex="1" parent="1">
          <mxGeometry x="-10" y="380" width="100" height="40" as="geometry" />
        </mxCell>
        <mxCell id="616qdfHTs7QE9x_-0bw8-52" value="judul_buku" style="ellipse;whiteSpace=wrap;html=1;align=center;" vertex="1" parent="1">
          <mxGeometry x="10" y="330" width="100" height="40" as="geometry" />
        </mxCell>
        <mxCell id="616qdfHTs7QE9x_-0bw8-53" value="tanggal_pinjam" style="ellipse;whiteSpace=wrap;html=1;align=center;" vertex="1" parent="1">
          <mxGeometry x="-280" y="350" width="100" height="40" as="geometry" />
        </mxCell>
        <mxCell id="616qdfHTs7QE9x_-0bw8-54" value="nomor_buku" style="ellipse;whiteSpace=wrap;html=1;align=center;" vertex="1" parent="1">
          <mxGeometry x="10" y="270" width="100" height="40" as="geometry" />
        </mxCell>
        <mxCell id="616qdfHTs7QE9x_-0bw8-55" value="nomer_anggota" style="ellipse;whiteSpace=wrap;html=1;align=center;" vertex="1" parent="1">
          <mxGeometry x="-20" y="220" width="100" height="40" as="geometry" />
        </mxCell>
        <mxCell id="616qdfHTs7QE9x_-0bw8-57" value="meminjem" style="shape=rhombus;perimeter=rhombusPerimeter;whiteSpace=wrap;html=1;align=center;" vertex="1" parent="1">
          <mxGeometry x="-120" y="280" width="80" height="120" as="geometry" />
        </mxCell>
        <mxCell id="616qdfHTs7QE9x_-0bw8-58" value="" style="endArrow=none;html=1;rounded=0;entryX=0;entryY=0.5;entryDx=0;entryDy=0;exitX=0.863;exitY=0.35;exitDx=0;exitDy=0;exitPerimeter=0;" edge="1" parent="1" source="616qdfHTs7QE9x_-0bw8-57" target="616qdfHTs7QE9x_-0bw8-55">
          <mxGeometry relative="1" as="geometry">
            <mxPoint x="-110" y="330" as="sourcePoint" />
            <mxPoint x="50" y="330" as="targetPoint" />
          </mxGeometry>
        </mxCell>
        <mxCell id="616qdfHTs7QE9x_-0bw8-59" value="" style="endArrow=none;html=1;rounded=0;exitX=1;exitY=0.5;exitDx=0;exitDy=0;entryX=0;entryY=0.75;entryDx=0;entryDy=0;" edge="1" parent="1" source="616qdfHTs7QE9x_-0bw8-2" target="616qdfHTs7QE9x_-0bw8-41">
          <mxGeometry relative="1" as="geometry">
            <mxPoint x="-110" y="330" as="sourcePoint" />
            <mxPoint x="50" y="330" as="targetPoint" />
          </mxGeometry>
        </mxCell>
        <mxCell id="616qdfHTs7QE9x_-0bw8-63" value="" style="endArrow=none;html=1;rounded=0;entryX=0.03;entryY=0.675;entryDx=0;entryDy=0;entryPerimeter=0;" edge="1" parent="1" target="616qdfHTs7QE9x_-0bw8-54">
          <mxGeometry relative="1" as="geometry">
            <mxPoint x="-50" y="320" as="sourcePoint" />
            <mxPoint x="50" y="330" as="targetPoint" />
          </mxGeometry>
        </mxCell>
        <mxCell id="616qdfHTs7QE9x_-0bw8-64" value="" style="endArrow=none;html=1;rounded=0;exitX=1;exitY=0.5;exitDx=0;exitDy=0;entryX=0;entryY=0.5;entryDx=0;entryDy=0;" edge="1" parent="1" source="616qdfHTs7QE9x_-0bw8-53" target="616qdfHTs7QE9x_-0bw8-57">
          <mxGeometry relative="1" as="geometry">
            <mxPoint x="-110" y="330" as="sourcePoint" />
            <mxPoint x="50" y="330" as="targetPoint" />
          </mxGeometry>
        </mxCell>
        <mxCell id="616qdfHTs7QE9x_-0bw8-65" value="" style="endArrow=none;html=1;rounded=0;exitX=0.33;exitY=-0.025;exitDx=0;exitDy=0;entryX=0.863;entryY=0.367;entryDx=0;entryDy=0;entryPerimeter=0;exitPerimeter=0;" edge="1" parent="1" source="616qdfHTs7QE9x_-0bw8-51" target="616qdfHTs7QE9x_-0bw8-57">
          <mxGeometry relative="1" as="geometry">
            <mxPoint x="-110" y="330" as="sourcePoint" />
            <mxPoint x="50" y="330" as="targetPoint" />
          </mxGeometry>
        </mxCell>
        <mxCell id="616qdfHTs7QE9x_-0bw8-66" value="" style="endArrow=none;html=1;rounded=0;exitX=1;exitY=1;exitDx=0;exitDy=0;" edge="1" parent="1" source="616qdfHTs7QE9x_-0bw8-50">
          <mxGeometry relative="1" as="geometry">
            <mxPoint x="-110" y="330" as="sourcePoint" />
            <mxPoint x="-120" y="340" as="targetPoint" />
          </mxGeometry>
        </mxCell>
        <mxCell id="616qdfHTs7QE9x_-0bw8-67" value="" style="endArrow=none;html=1;rounded=0;entryX=0;entryY=0.5;entryDx=0;entryDy=0;" edge="1" parent="1" target="616qdfHTs7QE9x_-0bw8-57">
          <mxGeometry relative="1" as="geometry">
            <mxPoint x="-170" y="264" as="sourcePoint" />
            <mxPoint x="50" y="330" as="targetPoint" />
          </mxGeometry>
        </mxCell>
        <mxCell id="616qdfHTs7QE9x_-0bw8-68" value="" style="endArrow=none;html=1;rounded=0;entryX=0;entryY=0.5;entryDx=0;entryDy=0;" edge="1" parent="1" target="616qdfHTs7QE9x_-0bw8-52">
          <mxGeometry relative="1" as="geometry">
            <mxPoint x="-50" y="320" as="sourcePoint" />
            <mxPoint x="50" y="330" as="targetPoint" />
          </mxGeometry>
        </mxCell>
        <mxCell id="616qdfHTs7QE9x_-0bw8-69" value="" style="endArrow=none;html=1;rounded=0;exitX=0.5;exitY=1;exitDx=0;exitDy=0;" edge="1" parent="1" source="616qdfHTs7QE9x_-0bw8-57" target="616qdfHTs7QE9x_-0bw8-70">
          <mxGeometry relative="1" as="geometry">
            <mxPoint x="-140" y="440" as="sourcePoint" />
            <mxPoint x="-80" y="510" as="targetPoint" />
          </mxGeometry>
        </mxCell>
        <mxCell id="616qdfHTs7QE9x_-0bw8-70" value="buku" style="whiteSpace=wrap;html=1;align=center;" vertex="1" parent="1">
          <mxGeometry x="-130" y="550" width="100" height="40" as="geometry" />
        </mxCell>
        <mxCell id="616qdfHTs7QE9x_-0bw8-71" value="judul_buku" style="ellipse;whiteSpace=wrap;html=1;align=center;" vertex="1" parent="1">
          <mxGeometry x="-240" y="600" width="100" height="40" as="geometry" />
        </mxCell>
        <mxCell id="616qdfHTs7QE9x_-0bw8-72" value="nomor_buku" style="ellipse;whiteSpace=wrap;html=1;align=center;" vertex="1" parent="1">
          <mxGeometry x="-220" y="660" width="100" height="40" as="geometry" />
        </mxCell>
        <mxCell id="616qdfHTs7QE9x_-0bw8-73" value="tahun_terbit" style="ellipse;whiteSpace=wrap;html=1;align=center;" vertex="1" parent="1">
          <mxGeometry x="-190" y="720" width="100" height="40" as="geometry" />
        </mxCell>
        <mxCell id="616qdfHTs7QE9x_-0bw8-74" value="penerbit" style="ellipse;whiteSpace=wrap;html=1;align=center;" vertex="1" parent="1">
          <mxGeometry x="-60" y="720" width="100" height="40" as="geometry" />
        </mxCell>
        <mxCell id="616qdfHTs7QE9x_-0bw8-75" value="jenis-buku" style="ellipse;whiteSpace=wrap;html=1;align=center;" vertex="1" parent="1">
          <mxGeometry x="-20" y="660" width="100" height="40" as="geometry" />
        </mxCell>
        <mxCell id="616qdfHTs7QE9x_-0bw8-76" value="pengarang" style="ellipse;whiteSpace=wrap;html=1;align=center;" vertex="1" parent="1">
          <mxGeometry x="-10" y="600" width="100" height="40" as="geometry" />
        </mxCell>
        <mxCell id="616qdfHTs7QE9x_-0bw8-77" value="" style="endArrow=none;html=1;rounded=0;exitX=0.28;exitY=0.025;exitDx=0;exitDy=0;exitPerimeter=0;entryX=0.5;entryY=1;entryDx=0;entryDy=0;" edge="1" parent="1" source="616qdfHTs7QE9x_-0bw8-74" target="616qdfHTs7QE9x_-0bw8-70">
          <mxGeometry relative="1" as="geometry">
            <mxPoint x="-110" y="530" as="sourcePoint" />
            <mxPoint x="50" y="530" as="targetPoint" />
          </mxGeometry>
        </mxCell>
        <mxCell id="616qdfHTs7QE9x_-0bw8-78" value="" style="endArrow=none;html=1;rounded=0;entryX=0.08;entryY=0.1;entryDx=0;entryDy=0;entryPerimeter=0;" edge="1" parent="1" target="616qdfHTs7QE9x_-0bw8-75">
          <mxGeometry relative="1" as="geometry">
            <mxPoint x="-80" y="590" as="sourcePoint" />
            <mxPoint x="50" y="530" as="targetPoint" />
          </mxGeometry>
        </mxCell>
        <mxCell id="616qdfHTs7QE9x_-0bw8-79" value="" style="endArrow=none;html=1;rounded=0;entryX=0.03;entryY=0.3;entryDx=0;entryDy=0;entryPerimeter=0;exitX=0.5;exitY=1;exitDx=0;exitDy=0;" edge="1" parent="1" source="616qdfHTs7QE9x_-0bw8-70" target="616qdfHTs7QE9x_-0bw8-76">
          <mxGeometry relative="1" as="geometry">
            <mxPoint x="-110" y="530" as="sourcePoint" />
            <mxPoint x="50" y="530" as="targetPoint" />
          </mxGeometry>
        </mxCell>
        <mxCell id="616qdfHTs7QE9x_-0bw8-80" value="" style="endArrow=none;html=1;rounded=0;entryX=1;entryY=0;entryDx=0;entryDy=0;" edge="1" parent="1" target="616qdfHTs7QE9x_-0bw8-73">
          <mxGeometry relative="1" as="geometry">
            <mxPoint x="-80" y="600" as="sourcePoint" />
            <mxPoint x="50" y="530" as="targetPoint" />
          </mxGeometry>
        </mxCell>
        <mxCell id="616qdfHTs7QE9x_-0bw8-81" value="" style="endArrow=none;html=1;rounded=0;entryX=0.98;entryY=0.25;entryDx=0;entryDy=0;entryPerimeter=0;" edge="1" parent="1" target="616qdfHTs7QE9x_-0bw8-72">
          <mxGeometry relative="1" as="geometry">
            <mxPoint x="-80" y="590" as="sourcePoint" />
            <mxPoint x="50" y="530" as="targetPoint" />
          </mxGeometry>
        </mxCell>
        <mxCell id="616qdfHTs7QE9x_-0bw8-82" value="" style="endArrow=none;html=1;rounded=0;exitX=1;exitY=0.5;exitDx=0;exitDy=0;entryX=0.5;entryY=1;entryDx=0;entryDy=0;" edge="1" parent="1" source="616qdfHTs7QE9x_-0bw8-71" target="616qdfHTs7QE9x_-0bw8-70">
          <mxGeometry relative="1" as="geometry">
            <mxPoint x="-110" y="530" as="sourcePoint" />
            <mxPoint x="50" y="530" as="targetPoint" />
          </mxGeometry>
        </mxCell>
      </root>
    </mxGraphModel>
  </diagram>
</mxfile>
